<mxfile host="app.diagrams.net" agent="Mozilla/5.0 (Windows NT 10.0; Win64; x64) AppleWebKit/537.36 (KHTML, like Gecko) Chrome/128.0.0.0 Safari/537.36 OPR/114.0.0.0" version="24.7.17">
  <diagram name="Page-1" id="9NPzJawyI3JbT69CDe69">
    <mxGraphModel dx="2289" dy="1373" grid="1" gridSize="10" guides="1" tooltips="1" connect="1" arrows="1" fold="1" page="1" pageScale="1" pageWidth="1200" pageHeight="1200" math="0" shadow="0">
      <root>
        <mxCell id="0" />
        <mxCell id="1" parent="0" />
        <mxCell id="IIv_lqPlJxyJq2wkpAyu-8" style="edgeStyle=orthogonalEdgeStyle;rounded=0;orthogonalLoop=1;jettySize=auto;html=1;exitX=0.25;exitY=0;exitDx=0;exitDy=0;entryX=0;entryY=0.5;entryDx=0;entryDy=0;endArrow=none;endFill=0;" edge="1" parent="1" source="IIv_lqPlJxyJq2wkpAyu-1" target="IIv_lqPlJxyJq2wkpAyu-6">
          <mxGeometry relative="1" as="geometry" />
        </mxCell>
        <mxCell id="IIv_lqPlJxyJq2wkpAyu-9" style="edgeStyle=orthogonalEdgeStyle;rounded=0;orthogonalLoop=1;jettySize=auto;html=1;exitX=0.25;exitY=0;exitDx=0;exitDy=0;entryX=0;entryY=0.5;entryDx=0;entryDy=0;endArrow=none;endFill=0;" edge="1" parent="1" source="IIv_lqPlJxyJq2wkpAyu-1" target="IIv_lqPlJxyJq2wkpAyu-7">
          <mxGeometry relative="1" as="geometry" />
        </mxCell>
        <mxCell id="IIv_lqPlJxyJq2wkpAyu-1" value="Ingredientes" style="rounded=0;whiteSpace=wrap;html=1;" vertex="1" parent="1">
          <mxGeometry x="540" y="170" width="120" height="60" as="geometry" />
        </mxCell>
        <mxCell id="IIv_lqPlJxyJq2wkpAyu-12" style="edgeStyle=orthogonalEdgeStyle;rounded=0;orthogonalLoop=1;jettySize=auto;html=1;exitX=0;exitY=0;exitDx=0;exitDy=0;entryX=1;entryY=0.5;entryDx=0;entryDy=0;endArrow=none;endFill=0;" edge="1" parent="1" source="IIv_lqPlJxyJq2wkpAyu-2" target="IIv_lqPlJxyJq2wkpAyu-10">
          <mxGeometry relative="1" as="geometry">
            <Array as="points">
              <mxPoint x="530" y="310" />
              <mxPoint x="530" y="310" />
            </Array>
          </mxGeometry>
        </mxCell>
        <mxCell id="IIv_lqPlJxyJq2wkpAyu-13" style="edgeStyle=orthogonalEdgeStyle;rounded=0;orthogonalLoop=1;jettySize=auto;html=1;exitX=0;exitY=1;exitDx=0;exitDy=0;entryX=1;entryY=0.5;entryDx=0;entryDy=0;endArrow=none;endFill=0;" edge="1" parent="1" source="IIv_lqPlJxyJq2wkpAyu-2" target="IIv_lqPlJxyJq2wkpAyu-11">
          <mxGeometry relative="1" as="geometry">
            <Array as="points">
              <mxPoint x="530" y="370" />
              <mxPoint x="530" y="370" />
            </Array>
          </mxGeometry>
        </mxCell>
        <mxCell id="IIv_lqPlJxyJq2wkpAyu-2" value="Artículos" style="rounded=0;whiteSpace=wrap;html=1;" vertex="1" parent="1">
          <mxGeometry x="540" y="310" width="120" height="60" as="geometry" />
        </mxCell>
        <mxCell id="IIv_lqPlJxyJq2wkpAyu-3" value="Complementario" style="rounded=0;whiteSpace=wrap;html=1;" vertex="1" parent="1">
          <mxGeometry x="490" y="540" width="220" height="60" as="geometry" />
        </mxCell>
        <mxCell id="IIv_lqPlJxyJq2wkpAyu-75" style="edgeStyle=orthogonalEdgeStyle;rounded=0;orthogonalLoop=1;jettySize=auto;html=1;exitX=0.25;exitY=0;exitDx=0;exitDy=0;entryX=0.5;entryY=1;entryDx=0;entryDy=0;endArrow=none;endFill=0;" edge="1" parent="1" source="IIv_lqPlJxyJq2wkpAyu-4" target="IIv_lqPlJxyJq2wkpAyu-74">
          <mxGeometry relative="1" as="geometry" />
        </mxCell>
        <mxCell id="IIv_lqPlJxyJq2wkpAyu-4" value="Pizzas" style="rounded=0;whiteSpace=wrap;html=1;" vertex="1" parent="1">
          <mxGeometry x="340" y="540" width="120" height="60" as="geometry" />
        </mxCell>
        <mxCell id="IIv_lqPlJxyJq2wkpAyu-5" value="Bocadillos" style="rounded=0;whiteSpace=wrap;html=1;" vertex="1" parent="1">
          <mxGeometry x="740" y="540" width="120" height="60" as="geometry" />
        </mxCell>
        <mxCell id="IIv_lqPlJxyJq2wkpAyu-6" value="ingrediente#" style="ellipse;whiteSpace=wrap;html=1;align=center;fontStyle=5;" vertex="1" parent="1">
          <mxGeometry x="600" y="70" width="100" height="40" as="geometry" />
        </mxCell>
        <mxCell id="IIv_lqPlJxyJq2wkpAyu-7" value="nombre_ingrediente" style="ellipse;whiteSpace=wrap;html=1;align=center;" vertex="1" parent="1">
          <mxGeometry x="600" y="120" width="140" height="40" as="geometry" />
        </mxCell>
        <mxCell id="IIv_lqPlJxyJq2wkpAyu-10" value="articulo#" style="ellipse;whiteSpace=wrap;html=1;align=center;fontStyle=5;" vertex="1" parent="1">
          <mxGeometry x="400" y="290" width="100" height="40" as="geometry" />
        </mxCell>
        <mxCell id="IIv_lqPlJxyJq2wkpAyu-11" value="precio_articulo" style="ellipse;whiteSpace=wrap;html=1;align=center;" vertex="1" parent="1">
          <mxGeometry x="400" y="350" width="100" height="40" as="geometry" />
        </mxCell>
        <mxCell id="IIv_lqPlJxyJq2wkpAyu-18" style="edgeStyle=orthogonalEdgeStyle;rounded=0;orthogonalLoop=1;jettySize=auto;html=1;exitX=0;exitY=0;exitDx=50;exitDy=0;exitPerimeter=0;entryX=0.5;entryY=0;entryDx=0;entryDy=0;" edge="1" parent="1" source="IIv_lqPlJxyJq2wkpAyu-15" target="IIv_lqPlJxyJq2wkpAyu-3">
          <mxGeometry relative="1" as="geometry" />
        </mxCell>
        <mxCell id="IIv_lqPlJxyJq2wkpAyu-19" style="rounded=0;orthogonalLoop=1;jettySize=auto;html=1;exitX=0;exitY=0;exitDx=75;exitDy=35;exitPerimeter=0;entryX=0.5;entryY=0;entryDx=0;entryDy=0;" edge="1" parent="1" source="IIv_lqPlJxyJq2wkpAyu-15" target="IIv_lqPlJxyJq2wkpAyu-4">
          <mxGeometry relative="1" as="geometry" />
        </mxCell>
        <mxCell id="IIv_lqPlJxyJq2wkpAyu-20" style="rounded=0;orthogonalLoop=1;jettySize=auto;html=1;exitX=0;exitY=0;exitDx=25;exitDy=35;exitPerimeter=0;entryX=0.5;entryY=0;entryDx=0;entryDy=0;" edge="1" parent="1" source="IIv_lqPlJxyJq2wkpAyu-15" target="IIv_lqPlJxyJq2wkpAyu-5">
          <mxGeometry relative="1" as="geometry" />
        </mxCell>
        <mxCell id="IIv_lqPlJxyJq2wkpAyu-27" value="" style="group" vertex="1" connectable="0" parent="1">
          <mxGeometry x="520" y="430" width="160" height="90" as="geometry" />
        </mxCell>
        <mxCell id="IIv_lqPlJxyJq2wkpAyu-21" value="" style="curved=1;endArrow=none;html=1;rounded=0;endFill=0;" edge="1" parent="IIv_lqPlJxyJq2wkpAyu-27">
          <mxGeometry width="50" height="50" relative="1" as="geometry">
            <mxPoint y="50" as="sourcePoint" />
            <mxPoint x="160" y="50" as="targetPoint" />
            <Array as="points">
              <mxPoint x="40" y="90" />
              <mxPoint x="120" y="90" />
            </Array>
          </mxGeometry>
        </mxCell>
        <mxCell id="IIv_lqPlJxyJq2wkpAyu-23" value="" style="group" vertex="1" connectable="0" parent="IIv_lqPlJxyJq2wkpAyu-27">
          <mxGeometry x="30" width="100" height="70" as="geometry" />
        </mxCell>
        <mxCell id="IIv_lqPlJxyJq2wkpAyu-15" value="" style="verticalLabelPosition=bottom;verticalAlign=top;html=1;shape=mxgraph.basic.acute_triangle;dx=0.5;direction=west;" vertex="1" parent="IIv_lqPlJxyJq2wkpAyu-23">
          <mxGeometry width="100" height="70" as="geometry" />
        </mxCell>
        <mxCell id="IIv_lqPlJxyJq2wkpAyu-22" value="ES_UN" style="text;html=1;align=center;verticalAlign=middle;whiteSpace=wrap;rounded=0;" vertex="1" parent="IIv_lqPlJxyJq2wkpAyu-23">
          <mxGeometry x="20" y="10" width="60" height="30" as="geometry" />
        </mxCell>
        <mxCell id="IIv_lqPlJxyJq2wkpAyu-28" value="t_art" style="ellipse;whiteSpace=wrap;html=1;align=center;" vertex="1" parent="1">
          <mxGeometry x="680" y="410" width="100" height="40" as="geometry" />
        </mxCell>
        <mxCell id="IIv_lqPlJxyJq2wkpAyu-29" style="edgeStyle=orthogonalEdgeStyle;rounded=0;orthogonalLoop=1;jettySize=auto;html=1;exitX=0;exitY=1;exitDx=0;exitDy=0;exitPerimeter=0;entryX=0;entryY=0.5;entryDx=0;entryDy=0;endArrow=none;endFill=0;" edge="1" parent="1" source="IIv_lqPlJxyJq2wkpAyu-15" target="IIv_lqPlJxyJq2wkpAyu-28">
          <mxGeometry relative="1" as="geometry">
            <Array as="points">
              <mxPoint x="660" y="430" />
              <mxPoint x="660" y="430" />
            </Array>
          </mxGeometry>
        </mxCell>
        <mxCell id="IIv_lqPlJxyJq2wkpAyu-33" style="edgeStyle=orthogonalEdgeStyle;rounded=0;orthogonalLoop=1;jettySize=auto;html=1;exitX=0.5;exitY=1;exitDx=0;exitDy=0;exitPerimeter=0;entryX=0.5;entryY=1;entryDx=0;entryDy=0;" edge="1" parent="1" source="IIv_lqPlJxyJq2wkpAyu-15" target="IIv_lqPlJxyJq2wkpAyu-2">
          <mxGeometry relative="1" as="geometry" />
        </mxCell>
        <mxCell id="IIv_lqPlJxyJq2wkpAyu-34" style="edgeStyle=orthogonalEdgeStyle;rounded=0;orthogonalLoop=1;jettySize=auto;html=1;exitX=0.5;exitY=1;exitDx=0;exitDy=0;exitPerimeter=0;entryX=0.5;entryY=1;entryDx=0;entryDy=0;" edge="1" parent="1" source="IIv_lqPlJxyJq2wkpAyu-31" target="IIv_lqPlJxyJq2wkpAyu-4">
          <mxGeometry relative="1" as="geometry" />
        </mxCell>
        <mxCell id="IIv_lqPlJxyJq2wkpAyu-35" value="Pequeña" style="rounded=0;whiteSpace=wrap;html=1;" vertex="1" parent="1">
          <mxGeometry x="260" y="750" width="80" height="40" as="geometry" />
        </mxCell>
        <mxCell id="IIv_lqPlJxyJq2wkpAyu-36" value="Mediana" style="rounded=0;whiteSpace=wrap;html=1;" vertex="1" parent="1">
          <mxGeometry x="360" y="750" width="80" height="40" as="geometry" />
        </mxCell>
        <mxCell id="IIv_lqPlJxyJq2wkpAyu-37" value="Grande" style="rounded=0;whiteSpace=wrap;html=1;" vertex="1" parent="1">
          <mxGeometry x="460" y="750" width="80" height="40" as="geometry" />
        </mxCell>
        <mxCell id="IIv_lqPlJxyJq2wkpAyu-38" style="rounded=0;orthogonalLoop=1;jettySize=auto;html=1;exitX=0;exitY=0;exitDx=75;exitDy=35;exitPerimeter=0;entryX=0.5;entryY=0;entryDx=0;entryDy=0;" edge="1" parent="1" source="IIv_lqPlJxyJq2wkpAyu-31" target="IIv_lqPlJxyJq2wkpAyu-35">
          <mxGeometry relative="1" as="geometry" />
        </mxCell>
        <mxCell id="IIv_lqPlJxyJq2wkpAyu-39" style="rounded=0;orthogonalLoop=1;jettySize=auto;html=1;exitX=0;exitY=0;exitDx=25;exitDy=35;exitPerimeter=0;entryX=0.5;entryY=0;entryDx=0;entryDy=0;" edge="1" parent="1" source="IIv_lqPlJxyJq2wkpAyu-31" target="IIv_lqPlJxyJq2wkpAyu-37">
          <mxGeometry relative="1" as="geometry" />
        </mxCell>
        <mxCell id="IIv_lqPlJxyJq2wkpAyu-40" style="edgeStyle=orthogonalEdgeStyle;rounded=0;orthogonalLoop=1;jettySize=auto;html=1;exitX=0;exitY=0;exitDx=50;exitDy=0;exitPerimeter=0;entryX=0.5;entryY=0;entryDx=0;entryDy=0;" edge="1" parent="1" source="IIv_lqPlJxyJq2wkpAyu-31" target="IIv_lqPlJxyJq2wkpAyu-36">
          <mxGeometry relative="1" as="geometry" />
        </mxCell>
        <mxCell id="IIv_lqPlJxyJq2wkpAyu-72" style="edgeStyle=orthogonalEdgeStyle;rounded=0;orthogonalLoop=1;jettySize=auto;html=1;exitX=0;exitY=1;exitDx=0;exitDy=0;exitPerimeter=0;entryX=0;entryY=0.5;entryDx=0;entryDy=0;endArrow=none;endFill=0;" edge="1" parent="1" source="IIv_lqPlJxyJq2wkpAyu-31" target="IIv_lqPlJxyJq2wkpAyu-70">
          <mxGeometry relative="1" as="geometry" />
        </mxCell>
        <mxCell id="IIv_lqPlJxyJq2wkpAyu-31" value="" style="verticalLabelPosition=bottom;verticalAlign=top;html=1;shape=mxgraph.basic.acute_triangle;dx=0.5;direction=west;" vertex="1" parent="1">
          <mxGeometry x="350" y="640" width="100" height="70" as="geometry" />
        </mxCell>
        <mxCell id="IIv_lqPlJxyJq2wkpAyu-32" value="ES_UN" style="text;html=1;align=center;verticalAlign=middle;whiteSpace=wrap;rounded=0;" vertex="1" parent="1">
          <mxGeometry x="370" y="640" width="60" height="30" as="geometry" />
        </mxCell>
        <mxCell id="IIv_lqPlJxyJq2wkpAyu-41" value="Pequeño" style="rounded=0;whiteSpace=wrap;html=1;" vertex="1" parent="1">
          <mxGeometry x="660" y="750" width="80" height="40" as="geometry" />
        </mxCell>
        <mxCell id="IIv_lqPlJxyJq2wkpAyu-42" value="Mediano" style="rounded=0;whiteSpace=wrap;html=1;" vertex="1" parent="1">
          <mxGeometry x="760" y="750" width="80" height="40" as="geometry" />
        </mxCell>
        <mxCell id="IIv_lqPlJxyJq2wkpAyu-43" value="Grande" style="rounded=0;whiteSpace=wrap;html=1;" vertex="1" parent="1">
          <mxGeometry x="860" y="750" width="80" height="40" as="geometry" />
        </mxCell>
        <mxCell id="IIv_lqPlJxyJq2wkpAyu-44" style="rounded=0;orthogonalLoop=1;jettySize=auto;html=1;exitX=0;exitY=0;exitDx=75;exitDy=35;exitPerimeter=0;entryX=0.5;entryY=0;entryDx=0;entryDy=0;" edge="1" source="IIv_lqPlJxyJq2wkpAyu-47" target="IIv_lqPlJxyJq2wkpAyu-41" parent="1">
          <mxGeometry relative="1" as="geometry" />
        </mxCell>
        <mxCell id="IIv_lqPlJxyJq2wkpAyu-45" style="rounded=0;orthogonalLoop=1;jettySize=auto;html=1;exitX=0;exitY=0;exitDx=25;exitDy=35;exitPerimeter=0;entryX=0.5;entryY=0;entryDx=0;entryDy=0;" edge="1" source="IIv_lqPlJxyJq2wkpAyu-47" target="IIv_lqPlJxyJq2wkpAyu-43" parent="1">
          <mxGeometry relative="1" as="geometry" />
        </mxCell>
        <mxCell id="IIv_lqPlJxyJq2wkpAyu-46" style="edgeStyle=orthogonalEdgeStyle;rounded=0;orthogonalLoop=1;jettySize=auto;html=1;exitX=0;exitY=0;exitDx=50;exitDy=0;exitPerimeter=0;entryX=0.5;entryY=0;entryDx=0;entryDy=0;" edge="1" source="IIv_lqPlJxyJq2wkpAyu-47" target="IIv_lqPlJxyJq2wkpAyu-42" parent="1">
          <mxGeometry relative="1" as="geometry" />
        </mxCell>
        <mxCell id="IIv_lqPlJxyJq2wkpAyu-73" style="edgeStyle=orthogonalEdgeStyle;rounded=0;orthogonalLoop=1;jettySize=auto;html=1;exitX=1;exitY=1;exitDx=0;exitDy=0;exitPerimeter=0;entryX=1;entryY=0.5;entryDx=0;entryDy=0;endArrow=none;endFill=0;" edge="1" parent="1" source="IIv_lqPlJxyJq2wkpAyu-47" target="IIv_lqPlJxyJq2wkpAyu-71">
          <mxGeometry relative="1" as="geometry" />
        </mxCell>
        <mxCell id="IIv_lqPlJxyJq2wkpAyu-47" value="" style="verticalLabelPosition=bottom;verticalAlign=top;html=1;shape=mxgraph.basic.acute_triangle;dx=0.5;direction=west;" vertex="1" parent="1">
          <mxGeometry x="750" y="640" width="100" height="70" as="geometry" />
        </mxCell>
        <mxCell id="IIv_lqPlJxyJq2wkpAyu-49" style="edgeStyle=orthogonalEdgeStyle;rounded=0;orthogonalLoop=1;jettySize=auto;html=1;exitX=0.5;exitY=0;exitDx=0;exitDy=0;entryX=0.5;entryY=1;entryDx=0;entryDy=0;" edge="1" parent="1" source="IIv_lqPlJxyJq2wkpAyu-48" target="IIv_lqPlJxyJq2wkpAyu-5">
          <mxGeometry relative="1" as="geometry" />
        </mxCell>
        <mxCell id="IIv_lqPlJxyJq2wkpAyu-48" value="ES_UN" style="text;html=1;align=center;verticalAlign=middle;whiteSpace=wrap;rounded=0;" vertex="1" parent="1">
          <mxGeometry x="770" y="640" width="60" height="30" as="geometry" />
        </mxCell>
        <mxCell id="IIv_lqPlJxyJq2wkpAyu-78" style="edgeStyle=orthogonalEdgeStyle;rounded=0;orthogonalLoop=1;jettySize=auto;html=1;exitX=0.5;exitY=1;exitDx=0;exitDy=0;entryX=0.5;entryY=0;entryDx=0;entryDy=0;endArrow=none;endFill=0;" edge="1" parent="1" source="IIv_lqPlJxyJq2wkpAyu-50" target="IIv_lqPlJxyJq2wkpAyu-77">
          <mxGeometry relative="1" as="geometry" />
        </mxCell>
        <mxCell id="IIv_lqPlJxyJq2wkpAyu-50" value="ProductosEstrella" style="shape=ext;margin=3;double=1;whiteSpace=wrap;html=1;align=center;" vertex="1" parent="1">
          <mxGeometry x="870" y="400" width="120" height="60" as="geometry" />
        </mxCell>
        <mxCell id="IIv_lqPlJxyJq2wkpAyu-53" style="edgeStyle=orthogonalEdgeStyle;rounded=0;orthogonalLoop=1;jettySize=auto;html=1;exitX=0.5;exitY=0;exitDx=0;exitDy=0;entryX=0.25;entryY=1;entryDx=0;entryDy=0;" edge="1" parent="1" source="IIv_lqPlJxyJq2wkpAyu-51" target="IIv_lqPlJxyJq2wkpAyu-1">
          <mxGeometry relative="1" as="geometry" />
        </mxCell>
        <mxCell id="IIv_lqPlJxyJq2wkpAyu-54" style="edgeStyle=orthogonalEdgeStyle;rounded=0;orthogonalLoop=1;jettySize=auto;html=1;exitX=0.5;exitY=1;exitDx=0;exitDy=0;entryX=0;entryY=0;entryDx=0;entryDy=0;" edge="1" parent="1" source="IIv_lqPlJxyJq2wkpAyu-51" target="IIv_lqPlJxyJq2wkpAyu-4">
          <mxGeometry relative="1" as="geometry">
            <Array as="points">
              <mxPoint x="260" y="540" />
            </Array>
          </mxGeometry>
        </mxCell>
        <mxCell id="IIv_lqPlJxyJq2wkpAyu-51" value="I-P" style="shape=rhombus;perimeter=rhombusPerimeter;whiteSpace=wrap;html=1;align=center;fontStyle=1" vertex="1" parent="1">
          <mxGeometry x="220" y="280" width="80" height="80" as="geometry" />
        </mxCell>
        <mxCell id="IIv_lqPlJxyJq2wkpAyu-55" style="edgeStyle=orthogonalEdgeStyle;rounded=0;orthogonalLoop=1;jettySize=auto;html=1;exitX=0.5;exitY=1;exitDx=0;exitDy=0;entryX=0;entryY=0.75;entryDx=0;entryDy=0;" edge="1" parent="1" source="IIv_lqPlJxyJq2wkpAyu-52" target="IIv_lqPlJxyJq2wkpAyu-4">
          <mxGeometry relative="1" as="geometry" />
        </mxCell>
        <mxCell id="IIv_lqPlJxyJq2wkpAyu-56" style="edgeStyle=orthogonalEdgeStyle;rounded=0;orthogonalLoop=1;jettySize=auto;html=1;exitX=0.5;exitY=0;exitDx=0;exitDy=0;entryX=0;entryY=0.75;entryDx=0;entryDy=0;" edge="1" parent="1" source="IIv_lqPlJxyJq2wkpAyu-52" target="IIv_lqPlJxyJq2wkpAyu-1">
          <mxGeometry relative="1" as="geometry" />
        </mxCell>
        <mxCell id="IIv_lqPlJxyJq2wkpAyu-52" value="P-I" style="shape=rhombus;perimeter=rhombusPerimeter;whiteSpace=wrap;html=1;align=center;fontStyle=1" vertex="1" parent="1">
          <mxGeometry x="130" y="240" width="80" height="80" as="geometry" />
        </mxCell>
        <mxCell id="IIv_lqPlJxyJq2wkpAyu-58" style="edgeStyle=orthogonalEdgeStyle;rounded=0;orthogonalLoop=1;jettySize=auto;html=1;exitX=0;exitY=0.5;exitDx=0;exitDy=0;entryX=1;entryY=0;entryDx=0;entryDy=0;" edge="1" parent="1" source="IIv_lqPlJxyJq2wkpAyu-62" target="IIv_lqPlJxyJq2wkpAyu-2">
          <mxGeometry relative="1" as="geometry">
            <mxPoint x="829.9999999999998" y="310" as="sourcePoint" />
            <Array as="points">
              <mxPoint x="840" y="310" />
            </Array>
          </mxGeometry>
        </mxCell>
        <mxCell id="IIv_lqPlJxyJq2wkpAyu-59" style="edgeStyle=orthogonalEdgeStyle;rounded=0;orthogonalLoop=1;jettySize=auto;html=1;exitX=0.5;exitY=1;exitDx=0;exitDy=0;entryX=0;entryY=0;entryDx=0;entryDy=0;" edge="1" parent="1" source="IIv_lqPlJxyJq2wkpAyu-62" target="IIv_lqPlJxyJq2wkpAyu-50">
          <mxGeometry relative="1" as="geometry">
            <mxPoint x="869.9999999999998" y="350" as="sourcePoint" />
          </mxGeometry>
        </mxCell>
        <mxCell id="IIv_lqPlJxyJq2wkpAyu-61" style="edgeStyle=orthogonalEdgeStyle;rounded=0;orthogonalLoop=1;jettySize=auto;html=1;exitX=0.5;exitY=1;exitDx=0;exitDy=0;entryX=0.75;entryY=0;entryDx=0;entryDy=0;" edge="1" parent="1" source="IIv_lqPlJxyJq2wkpAyu-60" target="IIv_lqPlJxyJq2wkpAyu-50">
          <mxGeometry relative="1" as="geometry" />
        </mxCell>
        <mxCell id="IIv_lqPlJxyJq2wkpAyu-66" style="edgeStyle=orthogonalEdgeStyle;rounded=0;orthogonalLoop=1;jettySize=auto;html=1;exitX=0.5;exitY=0;exitDx=0;exitDy=0;entryX=0.5;entryY=1;entryDx=0;entryDy=0;" edge="1" parent="1" source="IIv_lqPlJxyJq2wkpAyu-60" target="IIv_lqPlJxyJq2wkpAyu-1">
          <mxGeometry relative="1" as="geometry" />
        </mxCell>
        <mxCell id="IIv_lqPlJxyJq2wkpAyu-60" value="ES_I" style="shape=rhombus;perimeter=rhombusPerimeter;whiteSpace=wrap;html=1;align=center;fontStyle=1" vertex="1" parent="1">
          <mxGeometry x="920" y="270" width="80" height="80" as="geometry" />
        </mxCell>
        <mxCell id="IIv_lqPlJxyJq2wkpAyu-65" value="E" style="group;fontStyle=0" vertex="1" connectable="0" parent="1">
          <mxGeometry x="830" y="270" width="90" height="80" as="geometry" />
        </mxCell>
        <mxCell id="IIv_lqPlJxyJq2wkpAyu-62" value="&lt;b&gt;ES_A&lt;/b&gt;" style="shape=rhombus;perimeter=rhombusPerimeter;whiteSpace=wrap;html=1;align=center;" vertex="1" parent="IIv_lqPlJxyJq2wkpAyu-65">
          <mxGeometry width="80" height="80" as="geometry" />
        </mxCell>
        <mxCell id="IIv_lqPlJxyJq2wkpAyu-63" value="" style="endArrow=none;html=1;rounded=0;exitX=0;exitY=0;exitDx=0;exitDy=0;entryX=1;entryY=0;entryDx=0;entryDy=0;" edge="1" parent="IIv_lqPlJxyJq2wkpAyu-65" source="IIv_lqPlJxyJq2wkpAyu-62" target="IIv_lqPlJxyJq2wkpAyu-62">
          <mxGeometry width="50" height="50" relative="1" as="geometry">
            <mxPoint x="-50" y="130" as="sourcePoint" />
            <mxPoint y="80" as="targetPoint" />
          </mxGeometry>
        </mxCell>
        <mxCell id="IIv_lqPlJxyJq2wkpAyu-64" value="E" style="text;html=1;align=center;verticalAlign=middle;whiteSpace=wrap;rounded=0;" vertex="1" parent="IIv_lqPlJxyJq2wkpAyu-65">
          <mxGeometry x="30" y="8" width="20" height="10" as="geometry" />
        </mxCell>
        <mxCell id="IIv_lqPlJxyJq2wkpAyu-85" value="N:1" style="text;html=1;align=center;verticalAlign=middle;whiteSpace=wrap;rounded=0;" vertex="1" parent="IIv_lqPlJxyJq2wkpAyu-65">
          <mxGeometry x="60" y="-2" width="30" height="30" as="geometry" />
        </mxCell>
        <mxCell id="IIv_lqPlJxyJq2wkpAyu-68" style="edgeStyle=orthogonalEdgeStyle;rounded=0;orthogonalLoop=1;jettySize=auto;html=1;exitX=0.5;exitY=1;exitDx=0;exitDy=0;entryX=1;entryY=0;entryDx=0;entryDy=0;" edge="1" parent="1" source="IIv_lqPlJxyJq2wkpAyu-67" target="IIv_lqPlJxyJq2wkpAyu-5">
          <mxGeometry relative="1" as="geometry">
            <Array as="points">
              <mxPoint x="1050" y="540" />
            </Array>
          </mxGeometry>
        </mxCell>
        <mxCell id="IIv_lqPlJxyJq2wkpAyu-69" style="edgeStyle=orthogonalEdgeStyle;rounded=0;orthogonalLoop=1;jettySize=auto;html=1;exitX=0.5;exitY=0;exitDx=0;exitDy=0;entryX=1;entryY=0.25;entryDx=0;entryDy=0;" edge="1" parent="1" source="IIv_lqPlJxyJq2wkpAyu-67" target="IIv_lqPlJxyJq2wkpAyu-1">
          <mxGeometry relative="1" as="geometry" />
        </mxCell>
        <mxCell id="IIv_lqPlJxyJq2wkpAyu-82" style="edgeStyle=orthogonalEdgeStyle;rounded=0;orthogonalLoop=1;jettySize=auto;html=1;exitX=0;exitY=0.5;exitDx=0;exitDy=0;entryX=1;entryY=0.5;entryDx=0;entryDy=0;endArrow=none;endFill=0;" edge="1" parent="1" source="IIv_lqPlJxyJq2wkpAyu-67" target="IIv_lqPlJxyJq2wkpAyu-80">
          <mxGeometry relative="1" as="geometry" />
        </mxCell>
        <mxCell id="IIv_lqPlJxyJq2wkpAyu-67" value="B-I" style="shape=rhombus;perimeter=rhombusPerimeter;whiteSpace=wrap;html=1;align=center;fontStyle=1" vertex="1" parent="1">
          <mxGeometry x="1010" y="210" width="80" height="80" as="geometry" />
        </mxCell>
        <mxCell id="IIv_lqPlJxyJq2wkpAyu-70" value="tamano" style="ellipse;whiteSpace=wrap;html=1;align=center;" vertex="1" parent="1">
          <mxGeometry x="480" y="620" width="100" height="40" as="geometry" />
        </mxCell>
        <mxCell id="IIv_lqPlJxyJq2wkpAyu-71" value="tamano" style="ellipse;whiteSpace=wrap;html=1;align=center;" vertex="1" parent="1">
          <mxGeometry x="620" y="620" width="100" height="40" as="geometry" />
        </mxCell>
        <mxCell id="IIv_lqPlJxyJq2wkpAyu-74" value="precio_ingrediente" style="ellipse;whiteSpace=wrap;html=1;align=center;" vertex="1" parent="1">
          <mxGeometry x="310" y="470" width="120" height="40" as="geometry" />
        </mxCell>
        <mxCell id="IIv_lqPlJxyJq2wkpAyu-77" value="nombre_comercial" style="ellipse;whiteSpace=wrap;html=1;align=center;fontStyle=5;" vertex="1" parent="1">
          <mxGeometry x="870" y="490" width="120" height="40" as="geometry" />
        </mxCell>
        <mxCell id="IIv_lqPlJxyJq2wkpAyu-80" value="precio_ingrediente" style="ellipse;whiteSpace=wrap;html=1;align=center;" vertex="1" parent="1">
          <mxGeometry x="850" y="200" width="120" height="40" as="geometry" />
        </mxCell>
        <mxCell id="IIv_lqPlJxyJq2wkpAyu-83" value="N:N" style="text;html=1;align=center;verticalAlign=middle;whiteSpace=wrap;rounded=0;" vertex="1" parent="1">
          <mxGeometry x="300" y="305" width="30" height="30" as="geometry" />
        </mxCell>
        <mxCell id="IIv_lqPlJxyJq2wkpAyu-84" value="N:N" style="text;html=1;align=center;verticalAlign=middle;whiteSpace=wrap;rounded=0;" vertex="1" parent="1">
          <mxGeometry x="120" y="235" width="30" height="30" as="geometry" />
        </mxCell>
        <mxCell id="IIv_lqPlJxyJq2wkpAyu-86" value="N:N" style="text;html=1;align=center;verticalAlign=middle;whiteSpace=wrap;rounded=0;" vertex="1" parent="1">
          <mxGeometry x="1000" y="295" width="30" height="30" as="geometry" />
        </mxCell>
        <mxCell id="IIv_lqPlJxyJq2wkpAyu-87" value="N:N" style="text;html=1;align=center;verticalAlign=middle;whiteSpace=wrap;rounded=0;" vertex="1" parent="1">
          <mxGeometry x="1090" y="235" width="30" height="30" as="geometry" />
        </mxCell>
        <mxCell id="IIv_lqPlJxyJq2wkpAyu-88" value="0,n" style="text;html=1;align=center;verticalAlign=middle;whiteSpace=wrap;rounded=0;" vertex="1" parent="1">
          <mxGeometry x="285" y="510" width="30" height="30" as="geometry" />
        </mxCell>
        <mxCell id="IIv_lqPlJxyJq2wkpAyu-89" value="1,n" style="text;html=1;align=center;verticalAlign=middle;whiteSpace=wrap;rounded=0;" vertex="1" parent="1">
          <mxGeometry x="508" y="225" width="30" height="30" as="geometry" />
        </mxCell>
        <mxCell id="IIv_lqPlJxyJq2wkpAyu-90" value="0,n" style="text;html=1;align=center;verticalAlign=middle;whiteSpace=wrap;rounded=0;" vertex="1" parent="1">
          <mxGeometry x="285" y="585" width="30" height="30" as="geometry" />
        </mxCell>
        <mxCell id="IIv_lqPlJxyJq2wkpAyu-91" value="0,n" style="text;html=1;align=center;verticalAlign=middle;whiteSpace=wrap;rounded=0;" vertex="1" parent="1">
          <mxGeometry x="500" y="185" width="30" height="30" as="geometry" />
        </mxCell>
        <mxCell id="IIv_lqPlJxyJq2wkpAyu-92" value="1,n" style="text;html=1;align=center;verticalAlign=middle;whiteSpace=wrap;rounded=0;" vertex="1" parent="1">
          <mxGeometry x="600" y="250" width="30" height="30" as="geometry" />
        </mxCell>
        <mxCell id="IIv_lqPlJxyJq2wkpAyu-97" value="0,n" style="text;html=1;align=center;verticalAlign=middle;whiteSpace=wrap;rounded=0;" vertex="1" parent="1">
          <mxGeometry x="680" y="185" width="30" height="30" as="geometry" />
        </mxCell>
        <mxCell id="IIv_lqPlJxyJq2wkpAyu-99" value="0,n" style="text;html=1;align=center;verticalAlign=middle;whiteSpace=wrap;rounded=0;" vertex="1" parent="1">
          <mxGeometry x="880" y="540" width="30" height="30" as="geometry" />
        </mxCell>
        <mxCell id="IIv_lqPlJxyJq2wkpAyu-100" value="0,n" style="text;html=1;align=center;verticalAlign=middle;whiteSpace=wrap;rounded=0;" vertex="1" parent="1">
          <mxGeometry x="840" y="370" width="30" height="30" as="geometry" />
        </mxCell>
        <mxCell id="IIv_lqPlJxyJq2wkpAyu-101" value="0,n" style="text;html=1;align=center;verticalAlign=middle;whiteSpace=wrap;rounded=0;" vertex="1" parent="1">
          <mxGeometry x="960" y="370" width="30" height="30" as="geometry" />
        </mxCell>
        <mxCell id="IIv_lqPlJxyJq2wkpAyu-102" value="0,1" style="text;html=1;align=center;verticalAlign=middle;whiteSpace=wrap;rounded=0;" vertex="1" parent="1">
          <mxGeometry x="785" y="510" width="30" height="30" as="geometry" />
        </mxCell>
        <mxCell id="IIv_lqPlJxyJq2wkpAyu-103" value="0,1" style="text;html=1;align=center;verticalAlign=middle;whiteSpace=wrap;rounded=0;" vertex="1" parent="1">
          <mxGeometry x="610" y="510" width="30" height="30" as="geometry" />
        </mxCell>
        <mxCell id="IIv_lqPlJxyJq2wkpAyu-105" value="0,1" style="text;html=1;align=center;verticalAlign=middle;whiteSpace=wrap;rounded=0;" vertex="1" parent="1">
          <mxGeometry x="390" y="510" width="30" height="30" as="geometry" />
        </mxCell>
        <mxCell id="IIv_lqPlJxyJq2wkpAyu-106" value="1,1" style="text;html=1;align=center;verticalAlign=middle;whiteSpace=wrap;rounded=0;" vertex="1" parent="1">
          <mxGeometry x="370" y="610" width="30" height="30" as="geometry" />
        </mxCell>
        <mxCell id="IIv_lqPlJxyJq2wkpAyu-107" value="0,1" style="text;html=1;align=center;verticalAlign=middle;whiteSpace=wrap;rounded=0;" vertex="1" parent="1">
          <mxGeometry x="285" y="710" width="30" height="30" as="geometry" />
        </mxCell>
        <mxCell id="IIv_lqPlJxyJq2wkpAyu-108" value="0,1" style="text;html=1;align=center;verticalAlign=middle;whiteSpace=wrap;rounded=0;" vertex="1" parent="1">
          <mxGeometry x="370" y="710" width="30" height="30" as="geometry" />
        </mxCell>
        <mxCell id="IIv_lqPlJxyJq2wkpAyu-109" value="0,1" style="text;html=1;align=center;verticalAlign=middle;whiteSpace=wrap;rounded=0;" vertex="1" parent="1">
          <mxGeometry x="485" y="710" width="30" height="30" as="geometry" />
        </mxCell>
        <mxCell id="IIv_lqPlJxyJq2wkpAyu-110" value="0,1" style="text;html=1;align=center;verticalAlign=middle;whiteSpace=wrap;rounded=0;" vertex="1" parent="1">
          <mxGeometry x="690" y="710" width="30" height="30" as="geometry" />
        </mxCell>
        <mxCell id="IIv_lqPlJxyJq2wkpAyu-111" value="0,1" style="text;html=1;align=center;verticalAlign=middle;whiteSpace=wrap;rounded=0;" vertex="1" parent="1">
          <mxGeometry x="770" y="710" width="30" height="30" as="geometry" />
        </mxCell>
        <mxCell id="IIv_lqPlJxyJq2wkpAyu-112" value="0,1" style="text;html=1;align=center;verticalAlign=middle;whiteSpace=wrap;rounded=0;" vertex="1" parent="1">
          <mxGeometry x="885" y="710" width="30" height="30" as="geometry" />
        </mxCell>
        <mxCell id="IIv_lqPlJxyJq2wkpAyu-113" value="1,1" style="text;html=1;align=center;verticalAlign=middle;whiteSpace=wrap;rounded=0;" vertex="1" parent="1">
          <mxGeometry x="800" y="610" width="30" height="30" as="geometry" />
        </mxCell>
        <mxCell id="IIv_lqPlJxyJq2wkpAyu-114" value="1,1" style="text;html=1;align=center;verticalAlign=middle;whiteSpace=wrap;rounded=0;" vertex="1" parent="1">
          <mxGeometry x="600" y="390" width="30" height="30" as="geometry" />
        </mxCell>
        <mxCell id="IIv_lqPlJxyJq2wkpAyu-115" value="1,1" style="text;html=1;align=center;verticalAlign=middle;whiteSpace=wrap;rounded=0;" vertex="1" parent="1">
          <mxGeometry x="680" y="280" width="30" height="30" as="geometry" />
        </mxCell>
      </root>
    </mxGraphModel>
  </diagram>
</mxfile>
